# xmcd
#
# Track frame offsets: 
#        150
#        17627
#        32272
#        67719
#        79380
#        95426
#        113219
#        137008
#        148174
#        163878
#        179784
#
# Disc length: 2844 seconds
#
# Revision: 0
# Processed by: cddbd v1.5.2PL0 Copyright (c) Steve Scherf et al.
# Submitted via: ExactAudioCopy v0.95a4
#
DISCID=930b1a0b
DTITLE=Willie Sugarcapps - Paradise Right Here
DYEAR=2016
DGENRE=Folk/Rock
TTITLE0=Dreamer's Sky
TTITLE1=Faded Neighborhood
TTITLE2=Mancil Travis
TTITLE3=Intentions Of My Heart
TTITLE4=The Highway Breaks My Heart
TTITLE5=Love Be Good To Me
TTITLE6=May We Love
TTITLE7=Find The Good
TTITLE8=Magnolia Springs
TTITLE9=Rosemary And Time
TTITLE10=Paradise Right Here
EXTD=
EXTT0=
EXTT1=
EXTT2=
EXTT3=
EXTT4=
EXTT5=
EXTT6=
EXTT7=
EXTT8=
EXTT9=
EXTT10=
PLAYORDER=
